# Aspose.3D Wavefront OBJ Exporter
# Copyright 2004-2022 Aspose Pty Ltd.
# File created: 10/10/2022 15:50:32

mtllib material.lib

#
# object dodecahedron
#

v 33.26936721801757812 -11.7012271881103516 -48.541015625
v 20.0376739501953125 29.02173423767089843 -48.541015625
v -35.9845085144042968 -11.6920757293701172 -46.56618881225585936
v -22.76357460021972656 29.02738761901855469 -47.32050323486328124
v -1.3542499542236328 -36.86374282836914064 -47.32050323486328124
v 56.34598922729492188 18.30792236328125 9.48414993286132816
v 55.70913696289062496 -18.322723388671875 -12.67949104309082032
v 34.29981231689453124 47.56840515136718752 -12.67949104309082032
v -20.0376739501953125 -29.02173423767089843 48.541015625
v -33.26936721801757812 11.7012271881103516 48.541015625
v 35.9845085144042968 11.6920757293701172 46.56618881225585936
v 22.76357460021972656 -29.02738761901855469 47.32050323486328124
v 1.3542499542236328 36.86374282836914064 47.32050323486328124
v -56.34598922729492188 -18.30792236328125 -9.48414993286132816
v -55.70913696289062496 18.322723388671875 12.67949104309082032
v -34.29981231689453124 -47.56840515136718752 12.67949104309082032
v 34.95406341552734368 -47.57754898071289064 10.70466327667236328
v 0.3130512237548828 59.03653335571289062 10.70466327667236328
v -34.95406341552734368 47.57754898071289064 -10.70466327667236328
v -0.3130512237548828 -59.03653335571289062 -10.70466327667236328
# 20 vertices

vn -0.02850421704351902 -0.00926157180219888 -0.99955075979232784
vn -0.02850421704351902 -0.00926157180219888 -0.99955070018768304
vn -0.02850422263145447 -0.00926157273352146 -0.99955081939697264
vn -0.02850421704351902 -0.00926157180219888 -0.99955070018768304
vn -0.02850421890616417 -0.00926157273352146 -0.99955070018768304
vn 0.83752113580703728 0.2721271514892578 -0.47381964325904848
vn 0.83752113580703728 0.2721271514892578 -0.47381964325904848
vn 0.83752113580703728 0.2721271514892578 -0.47381964325904848
vn 0.83752113580703728 0.27212712168693544 -0.47381964325904848
vn 0.83752113580703728 0.27212712168693544 -0.47381964325904848
vn 0.51286554336547848 -0.7277870774269104 -0.45529636740684512
vn 0.51286554336547848 -0.7277870774269104 -0.45529636740684512
vn 0.51286554336547848 -0.7277870774269104 -0.45529636740684512
vn 0.51286554336547848 -0.7277871370315552 -0.45529639720916752
vn 0.51286554336547848 -0.7277870774269104 -0.45529636740684512
vn 0.86308902502059936 -0.27235174179077148 0.42532539367675784
vn 0.86308902502059936 -0.27235174179077148 0.42532539367675784
vn 0.86308908462524416 -0.27235174179077148 0.42532545328140256
vn 0.86308908462524416 -0.27235174179077148 0.42532548308372496
vn 0.86308902502059936 -0.27235174179077148 0.42532539367675784
vn 0.01286555919796228 -0.89024692773818976 0.45529648661613464
vn 0.01286555919796228 -0.89024692773818976 0.45529648661613464
vn 0.01286555919796228 -0.89024692773818976 0.45529648661613464
vn 0.01286555919796228 -0.89024692773818976 0.45529648661613464
vn 0.01286555640399456 -0.89024680852890016 0.45529642701148984
vn -0.53816944360733032 -0.72764819860458368 -0.42532545328140256
vn -0.53816944360733032 -0.72764813899993904 -0.42532545328140256
vn -0.53816944360733032 -0.72764813899993904 -0.42532545328140256
vn -0.53816944360733032 -0.72764813899993904 -0.42532545328140256
vn -0.53816944360733032 -0.72764813899993904 -0.42532545328140256
vn -0.86308914422988896 0.27235171198844908 -0.42532539367675784
vn -0.86308914422988896 0.27235171198844908 -0.42532539367675784
vn -0.86308914422988896 0.27235171198844908 -0.42532539367675784
vn -0.86308908462524416 0.27235168218612672 -0.42532536387443544
vn -0.86308908462524416 0.27235168218612672 -0.42532533407211304
vn -0.01286555919796228 0.89024680852890016 -0.45529648661613464
vn -0.01286555919796228 0.89024680852890016 -0.45529648661613464
vn -0.01286555919796228 0.89024680852890016 -0.45529648661613464
vn -0.01286555826663971 0.89024692773818976 -0.45529651641845704
vn -0.01286555919796228 0.89024680852890016 -0.45529648661613464
vn 0.53816944360733032 0.72764813899993904 0.42532545328140256
vn 0.53816944360733032 0.72764813899993904 0.42532545328140256
vn 0.53816944360733032 0.72764819860458368 0.42532542347908024
vn 0.53816944360733032 0.72764813899993904 0.42532542347908024
vn 0.53816944360733032 0.72764813899993904 0.42532542347908024
vn 0.0285042580217123 0.00926157273352146 0.99955070018768304
vn 0.0285042580217123 0.00926157180219888 0.99955070018768304
vn 0.02850425988435745 0.00926157273352146 0.99955081939697264
vn 0.0285042580217123 0.00926157180219888 0.99955070018768304
vn 0.0285042580217123 0.00926157180219888 0.99955075979232784
vn -0.51286560297012328 0.7277870774269104 0.45529639720916752
vn -0.51286560297012328 0.7277870774269104 0.45529639720916752
vn -0.51286554336547848 0.7277870774269104 0.45529642701148984
vn -0.51286560297012328 0.7277870774269104 0.45529639720916752
vn -0.51286560297012328 0.7277870774269104 0.45529639720916752
vn -0.83752119541168208 -0.27212706208229064 0.47381967306137088
vn -0.83752113580703728 -0.27212703227996828 0.47381964325904848
vn -0.83752113580703728 -0.27212703227996828 0.47381964325904848
vn -0.83752113580703728 -0.27212703227996828 0.47381964325904848
vn -0.83752119541168208 -0.27212706208229064 0.47381967306137088
# 60 vertex normals

vt 0.08085441589355469 0.40418106317520144 0
vt 0.50449776649475096 0.04996216297149658 0
vt 0.92477089166641232 0.40431004762649536 0
vt 0.76087039709091184 0.9775274395942688 0
vt 0.2393014430999756 0.9774479866027832 0
vt 0.25790369510650636 0.94119650125503536 0
vt 0.08639824390411377 0.38866633176803592 0
vt 0.47914689779281616 0.05621165037155151 0
vt 0.8933842182159424 0.403272807598114 0
vt 0.75664860010147088 0.95022356510162352 0
vt 0.03423535823822021 0.42323076725006104 0
vt 0.5014164447784424 0.12925344705581666 0
vt 0.97319555282592768 0.42095148563385008 0
vt 0.79759031534194944 0.89520823955535888 0
vt 0.21728092432022096 0.89661681652069088 0
vt 0.98366814851760864 0.60351288318634032 0
vt 0.5155523419380188 0.88935828208923344 0
vt 0.05051261186599731 0.6039031744003296 0
vt 0.53476017713546752 0.02923190593719482 0
vt 0.98678845167160032 0.41544273495674136 0
vt 0.79859822988510128 0.98978722095489504 0
vt 0.20920610427856444 0.983681321144104 0
vt 0.06139230728149414 0.3772224187850952 0
vt 0.39321833848953248 0.04468309879302978 0
vt 0.94167983531951904 0.22560369968414308 0
vt 0.93899559974670416 0.80497187376022336 0
vt 0.38887470960617064 0.98212039470672608 0
vt 0.05156588554382324 0.5122359991073608 0
vt 0.12417787313461304 0.38042712211608888 0
vt 0.55998575687408448 0.02170085906982422 0
vt 0.97587138414382928 0.3606091737747192 0
vt 0.79709464311599728 0.9287923574447632 0
vt 0.27071917057037352 0.94104075431823728 0
vt 0.93562406301498416 0.225211501121521 0
vt 0.92133754491806032 0.81248700618743904 0
vt 0.36015433073043824 0.97975277900695808 0
vt 0.02761024236679077 0.49585318565368656 0
vt 0.38327032327651976 0.02952122688293457 0
vt 0.98267590999603264 0.4074320197105408 0
vt 0.80763041973114016 0.12865400314331054 0
vt 0.22014194726943968 0.12974250316619874 0
vt 0.02076864242553711 0.38403379917144776 0
vt 0.50717616081237792 0.10124057531356812 0
vt 0.03688526153564453 0.60977292060852048 0
vt 0.98746061325073248 0.6080118417739868 0
vt 0.51111435890197752 0.90535962581634528 0
vt 0.233500599861145 0.02713578939437866 0
vt 0.77991545200347904 0.02705240249633789 0
vt 0.95162403583526608 0.62757629156112672 0
vt 0.51133036613464352 0.99880403280258176 0
vt 0.06750565767288208 0.62771135568618776 0
vt 0.91823697090148928 0.32250982522964476 0
vt 0.90328782796859744 0.88444757461547856 0
vt 0.37360417842864992 0.96145004034042352 0
vt 0.06119072437286377 0.4471027851104736 0
vt 0.3977922201156616 0.05221587419509888 0
vt 0.19565218687057496 0.86500090360641472 0
vt 0.79014396667480464 0.87946182489395136 0
vt 0.80794024467468256 0.1413959264755249 0
vt 0.23121827840805052 0.1416371464729309 0
# 60 texture coords

g dodecahedron
usemtl phong1
s 1
f 1/1/1 5/2/2 3/3/3 4/4/4 2/5/5
f 8/6/6 6/7/7 7/8/8 1/9/9 2/10/10
f 1/11/11 7/12/12 17/13/13 20/14/14 5/15/15
f 6/19/16 11/20/17 12/21/18 17/22/19 7/23/20
f 17/24/21 12/25/22 9/26/23 16/27/24 20/28/25
f 5/60/26 20/59/27 16/16/28 14/17/29 3/18/30
f 3/29/31 14/30/32 15/31/33 19/32/34 4/33/35
f 2/34/36 4/35/37 19/36/38 18/37/39 8/38/40
f 8/39/41 18/58/42 13/57/43 11/42/44 6/43/45
f 9/47/46 12/48/47 11/49/48 13/50/49 10/51/50
f 10/44/51 13/41/52 18/40/53 19/45/54 15/46/55
f 10/52/56 15/53/57 14/54/58 16/55/59 9/56/60
#12 polygons

